<?xml version="1.0" encoding="UTF-8" standalone="no"?>
<!-- Generator: Gravit.io -->

<svg
   xmlns:dc="http://purl.org/dc/elements/1.1/"
   xmlns:cc="http://creativecommons.org/ns#"
   xmlns:rdf="http://www.w3.org/1999/02/22-rdf-syntax-ns#"
   xmlns:svg="http://www.w3.org/2000/svg"
   xmlns="http://www.w3.org/2000/svg"
   xmlns:sodipodi="http://sodipodi.sourceforge.net/DTD/sodipodi-0.dtd"
   xmlns:inkscape="http://www.inkscape.org/namespaces/inkscape"
   style="isolation:isolate"
   viewBox="0 0 800 800"
   width="800"
   height="800"
   version="1.1"
   id="svg4683"
   sodipodi:docname="ecosounds.svg"
   inkscape:version="0.92.4 (5da689c313, 2019-01-14)">
  <metadata
     id="metadata4687">
    <rdf:RDF>
      <cc:Work
         rdf:about="">
        <dc:format>image/svg+xml</dc:format>
        <dc:type
           rdf:resource="http://purl.org/dc/dcmitype/StillImage" />
      </cc:Work>
    </rdf:RDF>
  </metadata>
  <sodipodi:namedview
     pagecolor="#ffffff"
     bordercolor="#666666"
     borderopacity="1"
     objecttolerance="10"
     gridtolerance="10"
     guidetolerance="10"
     inkscape:pageopacity="0"
     inkscape:pageshadow="2"
     inkscape:window-width="2400"
     inkscape:window-height="1321"
     id="namedview4685"
     showgrid="false"
     inkscape:zoom="1.18"
     inkscape:cx="656.40894"
     inkscape:cy="428.70698"
     inkscape:window-x="9591"
     inkscape:window-y="-9"
     inkscape:window-maximized="1"
     inkscape:current-layer="svg4683" />
  <defs
     id="defs4665">
    <clipPath
       id="_clipPath_wLdBdXyFEeFLJbwUPonIDtkLscm6Dpot">
      <rect
         width="800"
         height="800"
         id="rect4662" />
    </clipPath>
  </defs>
  <rect
     y="0"
     x="0"
     id="rect4667"
     style="display:inline;fill:#000000;fill-opacity:0"
     height="800"
     width="800" />
  <rect
     style="display:inline;fill:#00467f"
     id="rect4669"
     height="800"
     width="800"
     y="0"
     x="0" />
  <g
     id="g4671"
     style="display:inline;isolation:isolate" />
  <g
     id="g4673"
     style="display:inline;isolation:isolate" />
  <path
     style="display:inline;fill:#76cc2f"
     inkscape:connector-curvature="0"
     id="path4675"
     d="m 104.759,510.487 c 5.225,-28.333 29.963,-49.835 59.813,-49.835 29.879,0 54.625,21.548 59.82,49.919 123.929,11.745 220.849,116.213 220.468,243.303 -0.084,26.597 -22.149,47.999 -48.746,47.999 H 164.572 c -6.733,0 -12.187,-5.453 -12.187,-12.186 0,-13.459 10.915,-24.373 24.373,-24.373 h 60.544 l -27.267,-36.811 c -18.387,-27.595 -7.883,-67.239 25.675,-81.192 18.196,-7.563 39.263,-3.542 55.022,8.287 l 24.952,18.729 c 5.377,4.044 13.016,2.978 17.068,-2.43 4.037,-5.393 2.956,-13.032 -2.429,-17.069 l -26.491,-19.871 c -28.059,-21.068 -67.238,-21.037 -95.305,0 -8.279,6.207 -34.937,29.75 -31.076,70.993 L 87.172,801.873 H 18.334 c -6.733,0 -12.186,-5.453 -12.186,-12.186 0,-13.459 10.914,-24.373 24.373,-24.373 H 71.368 L 146.406,685.584 28.777,619.587 C 14.8,611.748 6.147,596.972 6.148,580.948 c 0,-16.3 8.926,-31.19 23.215,-39.02 30.893,-16.924 75.396,-31.441 75.396,-31.441 z m 59.813,29.377 c 10.099,0 18.279,-8.187 18.279,-18.279 0,-10.1 -8.18,-18.28 -18.279,-18.28 -10.092,0 -18.28,8.18 -18.28,18.28 0,10.092 8.188,18.279 18.28,18.279 z" />
  <path
     style="display:inline;fill:#75cb2e;stroke-width:0.99987978"
     d="m 689.48676,808.94076 c -5.46171,-1.37032 -10.69385,-5.57571 -13.30398,-10.69323 -9.87354,-19.35838 -16.34668,-99.1535 -28.90984,-356.37453 -8.70944,-178.31904 -11.07982,-225.17091 -11.59846,-229.25 -0.59555,-4.68396 -2.8149,-5.78618 -3.79399,-1.88424 -0.73486,2.92861 -3.14986,48.35811 -9.62899,181.13424 -11.65567,238.85865 -16.53538,317.03924 -23.03141,369 -3.56593,28.52322 -7.34625,39.7285 -15.25195,45.20847 -3.50224,2.42764 -4.9711,2.79153 -11.26814,2.79153 -6.60088,0 -7.58055,-0.27359 -11.08284,-3.09506 -4.50073,-3.62582 -7.71099,-8.87421 -9.82554,-16.06353 -3.53122,-12.00583 -7.27475,-40.93801 -11.55987,-89.34141 -2.17436,-24.56086 -3.04673,-28 -7.10241,-28 -1.15788,0 -3.82137,1.55079 -5.91884,3.44619 -12.26033,11.07914 -34.95498,4.12566 -43.92322,-13.45775 -3.14956,-6.17514 -5.26402,-17.4526 -4.49769,-23.98844 0.7414,-6.32318 2.52152,-13 3.46596,-13 0.35497,0 2.19579,1.61339 4.09073,3.58532 5.52951,5.75416 8.21297,6.68215 21.44101,7.41468 13.28417,0.73564 16.2183,1.75376 21.89085,7.596 1.91866,1.97606 3.96414,3.29879 4.54551,2.9394 0.58136,-0.35939 1.05703,-2.54088 1.05703,-4.84776 0,-5.00921 -15.08879,-229.76734 -17.9708,-267.68764 -2.66541,-35.07046 -4.00096,-50.12266 -4.63601,-52.25 -0.74458,-2.49425 -3.25993,-2.16587 -3.82992,0.5 -0.2646,1.2375 -3.6441,27.9 -7.51001,59.25 -13.03487,105.70454 -19.80708,138.37345 -31.5875,152.37706 -9.43898,11.22028 -25.76035,11.30755 -35.77181,0.19127 -5.62053,-6.2408 -10.97697,-18.15762 -17.78537,-39.56833 -20.62988,-64.87574 -23.12497,-71.5 -26.93122,-71.5 -1.37281,0 -5.5535,3.21056 -11.2859,8.66698 -23.31629,22.19381 -38.66759,26.20438 -73.63591,19.23757 l -15.49628,-3.08736 -254.583022,0.14901 c -231.036868,0.13522 -254.936178,10e-4 -258.401248,-1.44674 -4.88687,-2.04235 -7.14203,-4.11541 -9.49646,-8.72962 -4.54199,-8.90138 -0.44617,-20.44266 8.63621,-24.33528 2.45624,-1.05273 51.94701,-1.33345 260.937235,-1.48008 l 257.906085,-0.18096 15.83329,3.10324 c 18.18337,3.56384 23.56573,3.78972 29.15589,1.22356 2.19947,-1.00967 10.24664,-7.52184 17.88262,-14.47148 16.39829,-14.92441 21.69425,-17.95894 32.2797,-18.49594 10.82708,-0.54925 16.29073,1.63342 24.42704,9.75834 9.0866,9.07389 15.68015,22.68371 24.97805,51.55758 9.92849,30.83207 9.22027,29.03118 11.41686,29.03118 1.6184,0 2.13234,-1.20241 3.20574,-7.5 5.2381,-30.7316 14.73498,-104.05454 13.90359,-107.34609 -0.65156,-2.57963 -10.24362,-8.55598 -14.96145,-9.32176 -3.18268,-0.5166 -3.37854,-0.35386 -5.14637,4.27626 -2.24416,5.87767 -9.33845,13.17337 -15.7101,16.15614 -2.58554,1.21038 -7.90564,2.73005 -11.82243,3.37705 -24.33725,4.02018 -49.40379,-14.89906 -56.444,-42.6017 -1.4686,-5.77886 -2.10083,-17.5399 -0.94287,-17.5399 0.31449,0 2.45147,1.08377 4.74886,2.40837 5.2451,3.02417 14.36909,4.91846 19.35867,4.01917 2.09761,-0.37805 8.53769,-2.47513 14.3113,-4.66018 14.29968,-5.41176 21.75594,-5.63638 31.28815,-0.94256 6.40403,3.15345 10.27428,6.76306 13.95185,13.01225 l 1.75046,2.97451 -11.74806,-0.50599 c -9.61308,-0.41403 -13.47119,-0.12309 -21.22993,1.60098 -12.30121,2.73346 -18.51139,5.74755 -18.51139,8.98446 0,3.75647 2.61454,4.77288 8.2063,3.19023 2.63481,-0.74574 7.04004,-1.98629 9.78937,-2.75676 12.60261,-3.53176 30.38551,-2.55692 41.93616,2.2989 3.32877,1.39939 7.28323,3.05289 8.78767,3.67445 1.75431,0.72478 3.07631,0.78436 3.68595,0.16614 0.5228,-0.53019 2.57972,-14.01397 4.57091,-29.96397 11.35824,-90.98234 16.61386,-112.79344 28.91652,-120.00502 5.65806,-3.31664 10.44234,-4.07319 15.96954,-2.52529 22.50114,6.30144 26.4893,33.80804 45.08094,310.92614 4.0735,60.71771 7.84143,110.831 8.37317,111.36287 1.91736,1.91782 2.94267,-0.3854 3.56269,-8.00308 0.92951,-11.42028 5.82627,-106.50354 12.08982,-234.75562 13.30407,-272.41333 19.12212,-351.472327 27.51187,-373.84749 4.53768,-12.101795 15.76304,-17.946073 25.94784,-13.509259 8.51711,3.710315 11.83478,8.614073 14.9526,22.100986 3.08115,13.328284 7.47819,52.762664 9.56202,85.755764 0.33001,5.225 0.80919,10.512499 1.06485,11.749999 0.74665,3.61411 3.75942,2.64892 7.48919,-2.39928 5.00386,-6.772699 17.1096,-16.030229 27.42925,-20.975769 11.2255,-5.37965 21.92522,-8.14213 35.70201,-9.21761 11.32768,-0.88429 13.78608,-1.91086 13.78608,-5.75673 0,-4.21244 -3.89466,-5.73041 -12.75023,-4.96946 -18.04026,1.55018 -34.20697,5.97395 -45.84892,12.54586 -2.94534,1.66264 -5.58693,3.02299 -5.87019,3.02299 -1.04737,0 -0.46856,-6.7935 1.00034,-11.74102 3.24611,-10.93344 12.7617,-21.23019 23.47862,-25.40602 4.5812,-1.78507 8.52235,-2.25222 23.62112,-2.79982 17.81112,-0.64597 18.23542,-0.71292 24.70256,-3.89745 4.70127,-2.31498 8.27561,-5.11912 12.51759,-9.82037 3.27411,-3.628526 6.41976,-6.282028 7.01271,-5.915502 0.59136,0.365574 1.97583,3.581418 3.07666,7.146322 10.57956,34.26075 -2.8963,71.23076 -31.1833,85.549289 -19.82883,10.03714 -43.00625,6.89415 -55.48694,-7.52435 -1.23356,-1.42509 -2.78272,-2.59108 -3.44257,-2.59108 -2.02318,0 -11.52715,10.52834 -14.89974,16.50567 -1.81557,3.2178 -4.21471,6.04031 -5.5735,6.55704 -1.31214,0.499 -2.62057,1.51942 -2.9076,2.26759 -0.28704,0.74817 0.39207,16.39243 1.50911,34.76501 2.64752,43.54497 5.77977,103.97262 12.56497,242.40469 3.04626,62.15 6.65178,133.25 8.01226,158 1.36048,24.75 2.47526,46.60149 2.4773,48.55887 0.002,1.95738 0.63899,4.42788 1.41544,5.49001 1.36958,1.87345 1.44349,1.85676 2.47423,-0.55887 0.58437,-1.36951 4.00848,-47.04001 7.60917,-101.49001 7.4523,-112.69493 10.42849,-153.92356 14.04052,-194.5 5.89248,-66.19513 11.18911,-100.7168 17.28714,-112.67288 3.78409,-7.4192 12.41342,-13.30042 19.5462,-13.32154 3.87717,-0.0115 9.75096,2.42012 13.40668,5.55002 11.32367,9.69497 15.82669,32.11633 30.21483,150.4444 8.91845,73.34541 15.63844,121.01993 17.47809,123.99724 2.0776,3.36247 3.95875,-0.22295 9.44243,-17.99724 7.59378,-24.61411 11.30878,-34.55518 17.32304,-46.35608 9.09701,-17.84988 19.34784,-25.61556 33.83726,-25.63415 11.27329,-0.0145 17.98577,3.66313 33.91944,18.5834 18.23641,17.07652 22.0409,18.40072 41.41194,14.41401 5.32562,-1.09606 12.68595,-2.49886 16.35616,-3.11736 4.84294,-0.81611 77.26431,-1.0707 264.05581,-0.92827 252.592,0.19261 257.4534,0.23239 261.1861,2.13711 11.5519,5.89476 12.3957,23.51123 1.4723,30.74058 l -4.0203,2.66076 -255.511,0.13456 -255.51091,0.13456 -16.99252,3.2299 c -14.80753,2.81457 -18.47145,3.16965 -28.49314,2.7614 -17.82242,-0.72604 -26.48813,-4.93454 -44.61577,-21.66764 -6.60751,-6.09926 -10.53607,-9.02854 -11.87405,-8.85385 -3.79978,0.49613 -7.13998,9.39885 -26.9999,71.96434 -11.29838,35.59375 -19.99579,47.14326 -35.48507,47.12124 -14.31325,-0.0203 -23.82387,-11.87207 -30.35279,-37.82451 -6.42726,-25.54794 -11.41306,-58.31195 -21.57342,-141.76711 -2.72974,-22.42191 -5.23654,-41.20941 -5.57056,-41.75 -1.44065,-2.33159 -3.2922,-0.76884 -3.87096,3.26711 -1.2537,8.74314 -6.83526,85.76195 -14.11341,194.75 -4.13201,61.875 -8.63422,126.9 -10.00489,144.5 -1.37067,17.6 -2.4923,33.4625 -2.4925,35.25 -4e-4,4.05257 1.33268,4.14305 8.2809,0.56203 4.74896,-2.44749 6.55723,-2.74332 20.21194,-3.3067 17.98188,-0.74191 21.89114,-2.11584 29.98029,-10.5367 6.21041,-6.46504 6.37727,-6.37773 8.98894,4.70328 7.36983,31.26902 -10.65914,62.47752 -38.59032,66.8007 -10.3799,1.6066 -18.22162,-0.30117 -26.16411,-6.36527 -4.41653,-3.37197 -7.70144,-4.58924 -7.71084,-2.85734 -0.023,4.13297 -5.43189,36.47684 -6.87785,41.12379 -4.85973,15.61802 -14.09318,22.64798 -25.867,19.69397 z m 47.74534,-80.45577 c 4.82214,-1.71283 12.60617,-3.4976 17.99567,-4.12617 13.16904,-1.5359 13.77419,-1.70951 14.5569,-4.17607 0.51418,-1.62059 0.081,-2.68193 -1.6769,-4.10552 -2.0795,-1.68427 -3.35289,-1.83652 -10.3746,-1.24048 -13.13404,1.11491 -30.47467,6.32615 -32.69883,9.82675 -0.97757,1.5385 -1.02606,6.14918 -0.075,7.10074 0.81161,0.81187 0.58146,0.87337 12.27245,-3.27925 z M 536.91951,664.87076 c 1.30199,-3.39373 -0.65217,-6.47071 -5.75071,-9.05496 -11.00088,-5.5759 -30.026,-8.38155 -32.94878,-4.85898 -2.56847,3.09558 0.12204,4.81179 9.67284,6.17009 10.22715,1.45449 16.21991,3.27999 21.88914,6.66781 4.76651,2.84838 6.36511,3.08938 7.13751,1.07604 z"
     id="path4720"
     inkscape:connector-curvature="0" />
  <path
     style="display:inline;fill:#76cc2f"
     inkscape:connector-curvature="0"
     id="path4677"
     d="M 381.862,35.123 H 368.573 C 356.715,19.43 338.074,9.131 316.882,9.131 c -35.885,0 -64.98,29.095 -64.98,64.98 V 91.152 L -50.18,328.807 c -6.18,4.634 -9.819,11.907 -9.82,19.632 0,18.243 19.201,30.11 35.52,21.955 l 98.72,-49.36 h 78.373 l 36.072,97.55 c 1.844,5.061 7.432,7.668 12.493,5.824 l 18.316,-6.668 c 5.06,-1.844 7.667,-7.433 5.824,-12.493 l -31.134,-84.213 h 31.727 c 1.551,0 3.054,-0.187 4.597,-0.236 l 36.153,97.778 c 1.844,5.06 7.432,7.668 12.492,5.824 l 18.316,-6.669 c 5.061,-1.843 7.668,-7.432 5.824,-12.492 l -33.497,-90.59 c 64.744,-18.958 112.066,-78.69 112.066,-149.567 v -64.979 l 77.975,-12.996 c 0,-28.713 -34.91,-51.984 -77.975,-51.984 z m -64.98,58.482 c -10.762,0 -19.494,-8.732 -19.494,-19.494 0,-10.771 8.732,-19.494 19.494,-19.494 10.762,0 19.494,8.723 19.494,19.494 0,10.762 -8.732,19.494 -19.494,19.494 z" />
</svg>
